# xmcd CD database file
#
# Track frame offsets:
#	150
#	18098
#	37060
#	58840
#	79173
#	98043
#	115015
#	139495
#	155843
#	177778
#	196500
#	214590
#	231780
#	253840
#
# Disc length: 3683 seconds
#
# Revision: 0
# Processed by: cddbd v1.5.2PL0 Copyright (c) Steve Scherf et al.
# Submitted via: CDex 1.70beta2
#
DISCID=bb0e610e
DTITLE=トーマス・ハーデン・トリオ - JAZZで聴く…J-POP2
DYEAR=2002
DGENRE=Jazz
TTITLE0=いっそセレナーデ
TTITLE1=リバーサイドホテル
TTITLE2=オリビアを聴きながら
TTITLE3=未来予想図Ⅱ
TTITLE4=Missing
TTITLE5=SUMMER CANDLES
TTITLE6=けんかはやめて
TTITLE7=心もよう
TTITLE8=悪女
TTITLE9=I LOVE YOU
TTITLE10=あなたの空を翔びたい
TTITLE11=あの日にかえりたい
TTITLE12=卒業写真
TTITLE13=真夜中のナイチンゲール
EXTD=YEAR: 2002
EXTT0=
EXTT1=
EXTT2=
EXTT3=
EXTT4=
EXTT5=
EXTT6=
EXTT7=
EXTT8=
EXTT9=
EXTT10=
EXTT11=
EXTT12=
EXTT13=
PLAYORDER=
